<mxfile host="app.diagrams.net" modified="2023-05-20T13:16:29.233Z" agent="Mozilla/5.0 (Windows NT 10.0; Win64; x64) AppleWebKit/537.36 (KHTML, like Gecko) Chrome/113.0.0.0 Safari/537.36" etag="UPqdqo8vn9vlZN3MYB6i" version="21.2.1" type="device">
  <diagram name="Страница 1" id="XF2SdIOlBt_0Sz9FLaeO">
    <mxGraphModel dx="989" dy="521" grid="0" gridSize="10" guides="1" tooltips="1" connect="1" arrows="1" fold="1" page="1" pageScale="1" pageWidth="827" pageHeight="1169" math="0" shadow="0">
      <root>
        <mxCell id="0" />
        <mxCell id="1" parent="0" />
        <mxCell id="oDlsjkAv-pd_ToY8XhZJ-1" style="edgeStyle=orthogonalEdgeStyle;rounded=0;orthogonalLoop=1;jettySize=auto;html=1;exitX=0.5;exitY=0.5;exitDx=0;exitDy=0;exitPerimeter=0;entryX=0.5;entryY=0;entryDx=0;entryDy=0;" edge="1" parent="1" source="oDlsjkAv-pd_ToY8XhZJ-2" target="oDlsjkAv-pd_ToY8XhZJ-6">
          <mxGeometry relative="1" as="geometry" />
        </mxCell>
        <mxCell id="oDlsjkAv-pd_ToY8XhZJ-2" value="Player 1" style="shape=umlActor;verticalLabelPosition=bottom;verticalAlign=top;html=1;" vertex="1" parent="1">
          <mxGeometry x="220" y="220" width="30" height="60" as="geometry" />
        </mxCell>
        <mxCell id="oDlsjkAv-pd_ToY8XhZJ-3" style="edgeStyle=orthogonalEdgeStyle;rounded=0;orthogonalLoop=1;jettySize=auto;html=1;exitX=0.5;exitY=0.5;exitDx=0;exitDy=0;exitPerimeter=0;" edge="1" parent="1" source="oDlsjkAv-pd_ToY8XhZJ-4" target="oDlsjkAv-pd_ToY8XhZJ-6">
          <mxGeometry relative="1" as="geometry" />
        </mxCell>
        <mxCell id="oDlsjkAv-pd_ToY8XhZJ-4" value="Player 2" style="shape=umlActor;verticalLabelPosition=bottom;verticalAlign=top;html=1;" vertex="1" parent="1">
          <mxGeometry x="540" y="220" width="30" height="60" as="geometry" />
        </mxCell>
        <mxCell id="oDlsjkAv-pd_ToY8XhZJ-5" style="edgeStyle=orthogonalEdgeStyle;rounded=0;orthogonalLoop=1;jettySize=auto;html=1;exitX=0.5;exitY=1;exitDx=0;exitDy=0;" edge="1" parent="1" source="oDlsjkAv-pd_ToY8XhZJ-6" target="oDlsjkAv-pd_ToY8XhZJ-7">
          <mxGeometry relative="1" as="geometry" />
        </mxCell>
        <mxCell id="oDlsjkAv-pd_ToY8XhZJ-6" value="Авторизація" style="ellipse;whiteSpace=wrap;html=1;" vertex="1" parent="1">
          <mxGeometry x="344" y="360" width="140" height="70" as="geometry" />
        </mxCell>
        <mxCell id="oDlsjkAv-pd_ToY8XhZJ-7" value="Гра" style="ellipse;whiteSpace=wrap;html=1;" vertex="1" parent="1">
          <mxGeometry x="344" y="480" width="140" height="70" as="geometry" />
        </mxCell>
        <mxCell id="oDlsjkAv-pd_ToY8XhZJ-8" value="Введення літери" style="ellipse;whiteSpace=wrap;html=1;" vertex="1" parent="1">
          <mxGeometry x="620" y="480" width="140" height="70" as="geometry" />
        </mxCell>
        <mxCell id="oDlsjkAv-pd_ToY8XhZJ-9" value="include" style="html=1;verticalAlign=bottom;endArrow=open;dashed=1;endSize=8;edgeStyle=elbowEdgeStyle;elbow=vertical;curved=0;rounded=0;" edge="1" parent="1" source="oDlsjkAv-pd_ToY8XhZJ-7" target="oDlsjkAv-pd_ToY8XhZJ-8">
          <mxGeometry relative="1" as="geometry">
            <mxPoint x="450" y="380" as="sourcePoint" />
            <mxPoint x="370" y="380" as="targetPoint" />
          </mxGeometry>
        </mxCell>
        <mxCell id="oDlsjkAv-pd_ToY8XhZJ-10" value="Введення нікнейму" style="ellipse;whiteSpace=wrap;html=1;" vertex="1" parent="1">
          <mxGeometry x="620" y="360" width="140" height="70" as="geometry" />
        </mxCell>
        <mxCell id="oDlsjkAv-pd_ToY8XhZJ-11" value="include" style="html=1;verticalAlign=bottom;endArrow=open;dashed=1;endSize=8;edgeStyle=elbowEdgeStyle;elbow=vertical;curved=0;rounded=0;" edge="1" parent="1" source="oDlsjkAv-pd_ToY8XhZJ-6" target="oDlsjkAv-pd_ToY8XhZJ-10">
          <mxGeometry relative="1" as="geometry">
            <mxPoint x="494" y="525" as="sourcePoint" />
            <mxPoint x="630" y="525" as="targetPoint" />
          </mxGeometry>
        </mxCell>
      </root>
    </mxGraphModel>
  </diagram>
</mxfile>
